<svg height="512" viewBox="0 0 64 64" width="512" xmlns="http://www.w3.org/2000/svg" xmlns:xlink="http://www.w3.org/1999/xlink"><linearGradient id="linear-gradient" gradientUnits="userSpaceOnUse" x1="11.935" x2="14.782" y1="8.891" y2="11.737"><stop offset="0" stop-color="#f3f7ff"/><stop offset=".99" stop-color="#b5d1ff"/></linearGradient><linearGradient id="linear-gradient-2" x1="70.29" x2="99.96" xlink:href="#linear-gradient" y1="32" y2="32"/><linearGradient id="linear-gradient-3" gradientUnits="userSpaceOnUse" x1="61.125" x2="51.898" y1="13.411" y2="13.411"><stop offset="0" stop-color="#4ac297"/><stop offset="1" stop-color="#0b9560"/></linearGradient><linearGradient id="linear-gradient-4" gradientUnits="userSpaceOnUse" x1="61.125" x2="51.898" y1="28.304" y2="28.304"><stop offset="0" stop-color="#ff5252"/><stop offset="1" stop-color="#d50000"/></linearGradient><linearGradient id="linear-gradient-5" gradientUnits="userSpaceOnUse" x1="61.125" x2="51.898" y1="43.196" y2="43.196"><stop offset="0" stop-color="#fdc830"/><stop offset="1" stop-color="#f37335"/></linearGradient><linearGradient id="linear-gradient-6" x1="134.254" x2="-81.302" xlink:href="#linear-gradient" y1="32" y2="32"/><linearGradient id="linear-gradient-7" x1="29.259" x2="-73.771" xlink:href="#linear-gradient" y1="32" y2="32"/><linearGradient id="linear-gradient-8" x1="33.259" x2="-69.771" xlink:href="#linear-gradient" y1="32" y2="32"/><linearGradient id="linear-gradient-9" gradientUnits="userSpaceOnUse" x1="71.473" x2="-386.104" y1="8.214" y2="8.214"><stop offset="0" stop-color="#048ac4"/><stop offset="1" stop-color="#35489b"/></linearGradient><linearGradient id="linear-gradient-10" x1="71.473" x2="-386.104" xlink:href="#linear-gradient-9" y1="20.107" y2="20.107"/><linearGradient id="linear-gradient-11" x1="71.473" x2="-386.104" xlink:href="#linear-gradient-9" y1="32" y2="32"/><linearGradient id="linear-gradient-12" x1="71.473" x2="-386.104" xlink:href="#linear-gradient-9" y1="43.893" y2="43.893"/><linearGradient id="linear-gradient-13" x1="71.473" x2="-386.104" xlink:href="#linear-gradient-9" y1="55.786" y2="55.786"/><linearGradient id="linear-gradient-14" x1="37.741" x2="37.741" xlink:href="#linear-gradient" y1="41.993" y2="63.106"/><g id="Book"><rect fill="url(#linear-gradient)" height="64" rx="3" width="50" x="10.045"/><rect fill="url(#linear-gradient-2)" height="64" rx="3" width="50" x="8.045"/><rect fill="url(#linear-gradient-3)" height="13.393" rx="2" width="10.071" x="51.929" y="6.714"/><rect fill="url(#linear-gradient-4)" height="13.393" rx="2" width="10.071" x="51.929" y="21.607"/><rect fill="url(#linear-gradient-5)" height="13.393" rx="2" width="10.071" x="51.929" y="36.5"/><rect fill="url(#linear-gradient-6)" height="64" rx="3" width="50" x="6.045"/><path d="m13.616 0h1.821v64h-1.821z" fill="url(#linear-gradient-7)"/><path d="m17.616 0h1.821v64h-1.821z" fill="url(#linear-gradient-8)"/><rect fill="url(#linear-gradient-9)" height="3" rx="1.5" width="8.089" x="2" y="6.714"/><rect fill="url(#linear-gradient-10)" height="3" rx="1.5" width="8.089" x="2" y="18.607"/><rect fill="url(#linear-gradient-11)" height="3" rx="1.5" width="8.089" x="2" y="30.5"/><rect fill="url(#linear-gradient-12)" height="3" rx="1.5" width="8.089" x="2" y="42.393"/><rect fill="url(#linear-gradient-13)" height="3" rx="1.5" width="8.089" x="2" y="54.286"/><rect fill="url(#linear-gradient-14)" height="12.696" rx="1" width="22.714" x="26.384" y="11.099"/></g></svg>