<?xml version="1.0" encoding="utf-8"?>
<!-- Generator: Adobe Illustrator 16.0.0, SVG Export Plug-In . SVG Version: 6.00 Build 0)  -->
<!DOCTYPE svg PUBLIC "-//W3C//DTD SVG 1.1//EN" "http://www.w3.org/Graphics/SVG/1.1/DTD/svg11.dtd">
<svg version="1.1" id="artwork" xmlns="http://www.w3.org/2000/svg" xmlns:xlink="http://www.w3.org/1999/xlink" x="0px" y="0px"
	 width="891.871px" height="264.258px" viewBox="66.064 379.871 891.871 264.258"
	 enable-background="new 66.064 379.871 891.871 264.258" xml:space="preserve">
<title>fil_get</title>
<path d="M99.097,379.871h825.807c18.243,0,33.032,14.789,33.032,33.032v198.193c0,18.243-14.789,33.032-33.032,33.032H99.097
	c-18.243,0-33.032-14.789-33.032-33.032V412.903C66.064,394.66,80.854,379.871,99.097,379.871z"/>
<path fill="#A6A6A6" d="M924.903,385.156c15.324,0,27.747,12.423,27.747,27.747v198.193c0,15.324-12.423,27.747-27.747,27.747
	H99.097c-15.324,0-27.747-12.423-27.747-27.747l0,0V412.903c0-15.324,12.423-27.747,27.747-27.747l0,0H924.903 M924.903,379.871
	H99.097c-18.243,0-33.032,14.789-33.032,33.032v198.193c0,18.243,14.789,33.032,33.032,33.032h825.807
	c18.243,0,33.032-14.789,33.032-33.032V412.903C957.936,394.66,943.146,379.871,924.903,379.871z"/>
<path fill="#FFFFFF" stroke="#FFFFFF" stroke-width="0.2" stroke-miterlimit="10" d="M379.343,447.521
	c0.227,4.896-1.564,9.672-4.955,13.213c-3.789,3.936-9.074,6.073-14.534,5.879c-11.493-0.09-20.737-9.479-20.646-20.973
	c0.042-5.438,2.213-10.645,6.046-14.504c3.835-3.915,9.121-6.067,14.601-5.945c2.793-0.01,5.559,0.553,8.126,1.651
	c2.391,0.964,4.519,2.481,6.21,4.427l-3.502,3.501c-2.673-3.18-6.686-4.917-10.834-4.69c-8.465-0.042-15.36,6.787-15.402,15.252
	c-0.001,0.201,0.002,0.402,0.009,0.604c-0.12,8.609,6.761,15.688,15.371,15.809c4.119,0.058,8.094-1.517,11.055-4.38
	c2.033-2.202,3.206-5.063,3.304-8.06h-14.336v-4.757h19.225C379.254,445.529,379.343,446.524,379.343,447.521z"/>
<path fill="#FFFFFF" stroke="#FFFFFF" stroke-width="0.2" stroke-miterlimit="10" d="M409.6,431.005h-17.837v12.553h16.252v4.756
	h-16.252v12.553H409.6v4.889h-23.122v-39.639H409.6V431.005z"/>
<path fill="#FFFFFF" stroke="#FFFFFF" stroke-width="0.2" stroke-miterlimit="10" d="M431.27,465.755h-5.087v-34.75h-11.1v-4.889
	h27.549v4.889H431.27V465.755z"/>
<path fill="#FFFFFF" stroke="#FFFFFF" stroke-width="0.2" stroke-miterlimit="10" d="M462.056,465.755v-39.639h5.087v39.639H462.056
	z"/>
<path fill="#FFFFFF" stroke="#FFFFFF" stroke-width="0.2" stroke-miterlimit="10" d="M489.736,465.755h-5.087v-34.75h-11.099v-4.889
	h27.219v4.889h-11.033V465.755z"/>
<path fill="#FFFFFF" stroke="#FFFFFF" stroke-width="0.2" stroke-miterlimit="10" d="M552.365,460.602
	c-8.04,7.995-21.028,7.995-29.068,0c-7.794-8.25-7.794-21.148,0-29.398c7.969-8.027,20.936-8.074,28.963-0.105
	c0.035,0.035,0.07,0.07,0.105,0.105C560.192,439.439,560.192,452.365,552.365,460.602z M527.062,457.299
	c5.955,5.93,15.583,5.93,21.537,0c5.848-6.447,5.848-16.279,0-22.727c-5.954-5.93-15.582-5.93-21.537,0
	C521.215,441.02,521.215,450.852,527.062,457.299z"/>
<path fill="#FFFFFF" stroke="#FFFFFF" stroke-width="0.2" stroke-miterlimit="10" d="M565.38,465.755v-39.639h6.21l19.291,30.853
	l0,0v-7.664v-23.188h5.087v39.639h-5.285l-20.149-32.306l0,0v7.664v24.642H565.38z"/>
<path fill="#FFFFFF" d="M516.229,523.562c-15.507,0.073-28.019,12.702-27.945,28.209s12.703,28.018,28.209,27.945
	c15.455-0.073,27.945-12.622,27.945-28.077c0.222-15.286-11.99-27.857-27.276-28.08C516.85,523.555,516.539,523.556,516.229,523.562
	z M516.229,568.684c-9.391,0.656-17.536-6.424-18.192-15.814c-0.657-9.391,6.423-17.535,15.813-18.192
	c9.391-0.656,17.536,6.424,18.192,15.814c0.026,0.382,0.041,0.765,0.042,1.147c0.439,8.965-6.471,16.589-15.436,17.029
	C516.509,568.675,516.368,568.68,516.229,568.684z M454.722,523.562c-15.507,0.036-28.048,12.637-28.011,28.144
	c0.036,15.506,12.637,28.047,28.144,28.011c15.48-0.036,28.011-12.597,28.011-28.077c0.222-15.286-11.99-27.857-27.276-28.08
	c-0.311-0.004-0.622-0.003-0.933,0.003H454.722z M454.722,568.684c-9.388,0.693-17.56-6.355-18.253-15.743
	c-0.693-9.389,6.355-17.561,15.743-18.254s17.561,6.355,18.253,15.743c0.03,0.402,0.046,0.806,0.047,1.209
	c0.44,8.965-6.471,16.589-15.436,17.029c-0.14,0.007-0.28,0.012-0.42,0.016H454.722z M381.457,532.216v11.892h28.539
	c-0.447,5.601-2.775,10.886-6.606,14.996c-5.773,5.882-13.764,9.049-21.999,8.721c-17.514,0-31.711-14.197-31.711-31.711
	s14.197-31.711,31.711-31.711c8.045-0.131,15.814,2.934,21.603,8.522l8.391-8.39c-7.896-7.995-18.691-12.452-29.927-12.354
	c-24.1-0.938-44.396,17.838-45.334,41.938c-0.938,24.099,17.838,44.396,41.937,45.334c1.132,0.044,2.266,0.044,3.397,0
	c11.44,0.517,22.546-3.939,30.455-12.223c6.922-7.604,10.617-17.601,10.307-27.879c0.021-2.504-0.2-5.004-0.661-7.465
	L381.457,532.216z M680.795,541.465c-3.527-10.377-13.095-17.5-24.048-17.903c-14.595-0.028-26.448,11.779-26.478,26.374
	c-0.001,0.568,0.017,1.136,0.052,1.703c-0.33,15.175,11.704,27.744,26.879,28.074c0.334,0.007,0.667,0.008,1.001,0.003
	c9.387,0.051,18.172-4.614,23.387-12.42l-9.58-6.606c-2.908,4.849-8.152,7.811-13.807,7.796c-5.856,0.223-11.254-3.157-13.609-8.522
	l37.591-15.525L680.795,541.465z M642.478,550.846c-0.556-8.482,5.87-15.811,14.354-16.366c0.104-0.007,0.208-0.013,0.312-0.018
	c4.356-0.287,8.464,2.053,10.438,5.946L642.478,550.846z M611.955,578.064h12.354v-82.58h-12.354V578.064z M591.74,529.838h-0.463
	c-3.766-4.211-9.149-6.614-14.799-6.607c-15.524,0.754-27.5,13.949-26.747,29.475c0.702,14.471,12.276,26.045,26.747,26.747
	c5.668,0.095,11.086-2.324,14.799-6.606h0.396v4.029c0,10.769-5.748,16.517-14.997,16.517c-6.3-0.147-11.887-4.089-14.138-9.976
	l-10.769,4.492c4.147,10.087,14.001,16.647,24.906,16.582c14.469,0,26.426-8.522,26.426-29.267v-50.011H591.74V529.838z
	 M577.602,568.684c-9.413-0.83-16.372-9.134-15.542-18.547c0.729-8.264,7.279-14.814,15.542-15.543
	c8.746,0.449,15.472,7.902,15.022,16.647c-0.007,0.133-0.016,0.266-0.025,0.397c0.736,8.652-5.682,16.264-14.334,17
	c-0.242,0.021-0.485,0.035-0.729,0.045H577.602z M738.667,495.484h-29.53v82.58h12.354V546.75h17.243
	c14.157,1.017,26.458-9.635,27.475-23.792c1.017-14.156-9.635-26.457-23.792-27.475c-1.226-0.088-2.456-0.088-3.683,0
	L738.667,495.484z M738.667,535.123h-17.242v-28.144h17.507c7.826,0,14.171,6.344,14.171,14.171c0,7.826-6.345,14.17-14.171,14.17
	L738.667,535.123z M814.84,523.23c-9.191-0.549-17.833,4.407-22,12.619l10.967,4.559c2.21-4.072,6.614-6.456,11.231-6.078
	c6.522-0.762,12.429,3.908,13.19,10.432c0.008,0.068,0.016,0.137,0.022,0.204v0.859c-3.968-2.101-8.394-3.19-12.883-3.171
	c-11.825,0-23.783,6.606-23.783,18.563c0.482,10.534,9.412,18.683,19.945,18.2c0.179-0.008,0.356-0.019,0.535-0.032
	c6.337,0.455,12.417-2.585,15.854-7.928h0.396v6.606h11.893v-31.777c0-14.468-10.967-22.858-25.039-22.858L814.84,523.23z
	 M813.32,568.485c-4.03,0-9.646-2.048-9.646-7.003c0-6.606,7.003-8.787,13.213-8.787c3.925-0.097,7.803,0.861,11.231,2.775
	c-0.854,7.396-7.026,13.031-14.469,13.213L813.32,568.485z M883.547,525.213l-14.138,35.807h-0.396l-14.666-35.807h-13.213
	l21.999,50.077l-12.552,27.812h12.882l33.825-77.89H883.547z M772.492,578.064h12.354v-82.58h-12.354V578.064z"/>
<linearGradient id="SVGID_1_" gradientUnits="userSpaceOnUse" x1="1.0454" y1="823.5781" x2="-15.7346" y2="840.3582" gradientTransform="matrix(6.6065 0 0 6.6065 203.1968 -5003.501)">
	<stop  offset="0" style="stop-color:#00A0FF"/>
	<stop  offset="0.01" style="stop-color:#00A1FF"/>
	<stop  offset="0.26" style="stop-color:#00BEFF"/>
	<stop  offset="0.51" style="stop-color:#00D2FF"/>
	<stop  offset="0.76" style="stop-color:#00DFFF"/>
	<stop  offset="1" style="stop-color:#00E3FF"/>
</linearGradient>
<path fill="url(#SVGID_1_)" d="M135.036,429.684c-2.153,2.584-3.24,5.892-3.039,9.249v146.135c-0.201,3.357,0.886,6.665,3.039,9.249
	l0.462,0.463l81.854-81.788v-1.916l-81.854-81.854L135.036,429.684z"/>
<linearGradient id="SVGID_2_" gradientUnits="userSpaceOnUse" x1="13.0728" y1="834.8662" x2="-11.1172" y2="834.8662" gradientTransform="matrix(6.6065 0 0 6.6065 203.1968 -5003.501)">
	<stop  offset="0" style="stop-color:#FFE000"/>
	<stop  offset="0.41" style="stop-color:#FFBD00"/>
	<stop  offset="0.78" style="stop-color:#FFA500"/>
	<stop  offset="1" style="stop-color:#FF9C00"/>
</linearGradient>
<path fill="url(#SVGID_2_)" d="M244.438,540.275l-27.086-27.284v-1.916l27.086-27.351l0.595,0.33l32.438,18.432
	c9.249,5.22,9.249,13.808,0,19.093l-32.306,18.366L244.438,540.275z"/>
<linearGradient id="SVGID_3_" gradientUnits="userSpaceOnUse" x1="4.0698" y1="837.1631" x2="-18.6902" y2="859.9131" gradientTransform="matrix(6.6065 0 0 6.6065 203.1968 -5003.501)">
	<stop  offset="0" style="stop-color:#FF3A44"/>
	<stop  offset="1" style="stop-color:#C31162"/>
</linearGradient>
<path fill="url(#SVGID_3_)" d="M245.231,539.879L217.352,512l-82.316,82.316c3.889,3.419,9.661,3.586,13.741,0.396l96.52-54.834"/>
<linearGradient id="SVGID_4_" gradientUnits="userSpaceOnUse" x1="-13.4595" y1="815.0498" x2="-3.3" y2="825.2092" gradientTransform="matrix(6.6065 0 0 6.6065 203.1968 -5003.501)">
	<stop  offset="0" style="stop-color:#32A071"/>
	<stop  offset="0.07" style="stop-color:#2DA771"/>
	<stop  offset="0.48" style="stop-color:#15CF74"/>
	<stop  offset="0.8" style="stop-color:#06E775"/>
	<stop  offset="1" style="stop-color:#00F076"/>
</linearGradient>
<path fill="url(#SVGID_4_)" d="M245.231,484.121l-96.52-54.834c-4.08-3.189-9.852-3.022-13.742,0.396L217.352,512L245.231,484.121z"
	/>
<path opacity="0.2" enable-background="new    " d="M244.438,539.285l-95.727,54.503c-3.917,2.929-9.296,2.929-13.213,0l0,0
	l-0.462,0.462l0,0l0.462,0.463l0,0c3.91,2.951,9.303,2.951,13.213,0l96.52-54.834L244.438,539.285z"/>
<path opacity="0.12" enable-background="new    " d="M135.036,593.392c-2.153-2.584-3.24-5.892-3.039-9.249v0.991
	c-0.201,3.357,0.886,6.665,3.039,9.249l0.462-0.463L135.036,593.392z"/>
<path opacity="0.12" enable-background="new    " d="M277.471,520.588l-33.033,18.696l0.595,0.595l32.438-18.365
	c3.746-1.76,6.266-5.389,6.606-9.514l0,0C283.324,515.731,280.885,518.903,277.471,520.588z"/>
<path opacity="0.25" fill="#FFFFFF" enable-background="new    " d="M148.711,430.212l128.76,73.2
	c3.414,1.685,5.853,4.856,6.606,8.588l0,0c-0.341-4.125-2.86-7.754-6.606-9.514l-128.76-73.199
	c-9.249-5.219-16.781-0.858-16.781,9.712v0.99C132.129,429.354,139.528,424.993,148.711,430.212z"/>
</svg>
